<svg xmlns="http://www.w3.org/2000/svg" width="32" height="32" version="1" id="kitchen"><path fill="#239fdb" d="M32 16c0 8.836-7.164 16-16 16S0 24.836 0 16 7.164 0 16 0s16 7.164 16 16z"></path><path fill="#fff" d="M16.22 6.11s-.11 0 0 0c-1.209.11-2.088.66-2.638 1.648-.44-.22-.879-.55-1.538-.55-1.978 0-3.626 1.65-3.626 3.627 0 .55.22 1.1.549 1.539A3.673 3.673 0 0 0 6 16c0 2.088 1.648 3.736 3.846 3.736.44 0 .88-.22 1.319-.33v6.045c0 .22.22.44.44.44h8.79c.22 0 .44-.22.44-.44v-6.374c.44.11.77.33 1.319.33 2.088 0 3.846-1.649 3.846-3.737 0-1.538-.989-2.747-2.308-3.296v-.11c0-1.429-.55-2.528-1.428-2.967-.77-.44-1.649-.33-2.638-.11-.11-1.649-1.538-3.077-3.406-3.077z"></path></svg>